HIERARCHY
ROOT Hips
{
    OFFSET 0.000000 97.120003 0.000000
    CHANNELS 6 Xposition Yposition Zposition Yrotation Xrotation Zrotation
    JOINT RightUpLeg
    {
        OFFSET -11.000000 -0.000000 0.000000
        CHANNELS 3 Yrotation Xrotation Zrotation
        JOINT RightLeg
        {
            OFFSET 0.000000 -45.062000 0.000000
            CHANNELS 3 Yrotation Xrotation Zrotation
            JOINT RightFoot
            {
                OFFSET 0.000000 -42.057999 0.000000
                CHANNELS 3 Yrotation Xrotation Zrotation
                End Site
                {
                    OFFSET 0.000000 -10.000000 15.120000
                }
            }
        }
    }
    JOINT LeftUpLeg
    {
        OFFSET 11.000000 -0.000000 0.000000
        CHANNELS 3 Yrotation Xrotation Zrotation
        JOINT LeftLeg
        {
            OFFSET 0.000000 -45.062000 0.000000
            CHANNELS 3 Yrotation Xrotation Zrotation
            JOINT LeftFoot
            {
                OFFSET 0.000000 -42.057999 0.000000
                CHANNELS 3 Yrotation Xrotation Zrotation
                End Site
                {
                    OFFSET 0.000000 -10.000000 15.120000
                }
            }
        }
    }
    JOINT Spine
    {
        OFFSET 0.000000 8.120000 0.000000
        CHANNELS 3 Yrotation Xrotation Zrotation
        JOINT Spine1
        {
            OFFSET 0.000000 17.980000 0.000000
            CHANNELS 3 Yrotation Xrotation Zrotation
            JOINT Spine2
            {
                OFFSET 0.000000 12.760000 0.000000
                CHANNELS 3 Yrotation Xrotation Zrotation
                JOINT Neck
                {
                    OFFSET 0.000000 19.139999 0.000000
                    CHANNELS 3 Yrotation Xrotation Zrotation
                    JOINT Neck1
                    {
                        OFFSET 0.000000 4.250000 0.000000
                        CHANNELS 3 Yrotation Xrotation Zrotation
                        JOINT Head
                        {
                            OFFSET 0.000000 4.250000 0.000000
                            CHANNELS 3 Yrotation Xrotation Zrotation
                            End Site
                            {
                                OFFSET 0.000000 19.120001 0.000000
                            }
                        }
                    }
                }
                JOINT RightShoulder
                {
                    OFFSET -2.900000 13.340000 0.000000
                    CHANNELS 3 Yrotation Xrotation Zrotation
                    JOINT RightArm
                    {
                        OFFSET -16.100000 0.000000 0.000000
                        CHANNELS 3 Yrotation Xrotation Zrotation
                        JOINT RightForeArm
                        {
                            OFFSET -28.000000 0.000000 0.000000
                            CHANNELS 3 Yrotation Xrotation Zrotation
                            JOINT RightHand
                            {
                                OFFSET -26.000000 0.000000 0.000000
                                CHANNELS 3 Yrotation Xrotation Zrotation
                                JOINT RightHandThumb1
                                {
                                    OFFSET -1.937000 -0.484000 2.518000
                                    CHANNELS 3 Yrotation Xrotation Zrotation
                                    JOINT RightHandThumb2
                                    {
                                        OFFSET -3.872000 0.000000 0.000000
                                        CHANNELS 3 Yrotation Xrotation Zrotation
                                        JOINT RightHandThumb3
                                        {
                                            OFFSET -2.690000 0.000000 0.000000
                                            CHANNELS 3 Yrotation Xrotation Zrotation
                                            End Site
                                            {
                                                OFFSET -2.537000 0.000000 0.000000
                                            }
                                        }
                                    }
                                }
                                JOINT RightInHandIndex
                                {
                                    OFFSET -3.389000 0.535000 2.080000
                                    CHANNELS 3 Yrotation Xrotation Zrotation
                                    JOINT RightHandIndex1
                                    {
                                        OFFSET -5.485000 -0.096000 1.051000
                                        CHANNELS 3 Yrotation Xrotation Zrotation
                                        JOINT RightHandIndex2
                                        {
                                            OFFSET -3.806000 0.000000 0.000000
                                            CHANNELS 3 Yrotation Xrotation Zrotation
                                            JOINT RightHandIndex3
                                            {
                                                OFFSET -2.158000 0.000000 0.000000
                                                CHANNELS 3 Yrotation Xrotation Zrotation
                                                End Site
                                                {
                                                    OFFSET -1.898000 0.000000 0.000000
                                                }
                                            }
                                        }
                                    }
                                }
                                JOINT RightInHandMiddle
                                {
                                    OFFSET -3.556000 0.544000 0.796000
                                    CHANNELS 3 Yrotation Xrotation Zrotation
                                    JOINT RightHandMiddle1
                                    {
                                        OFFSET -5.441000 -0.088000 0.330000
                                        CHANNELS 3 Yrotation Xrotation Zrotation
                                        JOINT RightHandMiddle2
                                        {
                                            OFFSET -4.153000 0.000000 0.000000
                                            CHANNELS 3 Yrotation Xrotation Zrotation
                                            JOINT RightHandMiddle3
                                            {
                                                OFFSET -2.603000 0.000000 0.000000
                                                CHANNELS 3 Yrotation Xrotation Zrotation
                                                End Site
                                                {
                                                    OFFSET -2.076000 0.000000 0.000000
                                                }
                                            }
                                        }
                                    }
                                }
                                JOINT RightInHandRing
                                {
                                    OFFSET -3.539000 0.566000 -0.136000
                                    CHANNELS 3 Yrotation Xrotation Zrotation
                                    JOINT RightHandRing1
                                    {
                                        OFFSET -4.873000 -0.023000 -0.504000
                                        CHANNELS 3 Yrotation Xrotation Zrotation
                                        JOINT RightHandRing2
                                        {
                                            OFFSET -3.619000 0.000000 0.000000
                                            CHANNELS 3 Yrotation Xrotation Zrotation
                                            JOINT RightHandRing3
                                            {
                                                OFFSET -2.511000 0.000000 0.000000
                                                CHANNELS 3 Yrotation Xrotation Zrotation
                                                End Site
                                                {
                                                    OFFSET -1.952000 0.000000 0.000000
                                                }
                                            }
                                        }
                                    }
                                }
                                JOINT RightInHandPinky
                                {
                                    OFFSET -3.324000 0.494000 -1.264000
                                    CHANNELS 3 Yrotation Xrotation Zrotation
                                    JOINT RightHandPinky1
                                    {
                                        OFFSET -4.354000 -0.023000 -1.147000
                                        CHANNELS 3 Yrotation Xrotation Zrotation
                                        JOINT RightHandPinky2
                                        {
                                            OFFSET -2.898000 0.000000 0.000000
                                            CHANNELS 3 Yrotation Xrotation Zrotation
                                            JOINT RightHandPinky3
                                            {
                                                OFFSET -1.831000 0.000000 0.000000
                                                CHANNELS 3 Yrotation Xrotation Zrotation
                                                End Site
                                                {
                                                    OFFSET -1.730000 0.000000 0.000000
                                                }
                                            }
                                        }
                                    }
                                }
                            }
                        }
                    }
                }
                JOINT LeftShoulder
                {
                    OFFSET 2.900000 13.340000 0.000000
                    CHANNELS 3 Yrotation Xrotation Zrotation
                    JOINT LeftArm
                    {
                        OFFSET 16.100000 0.000000 0.000000
                        CHANNELS 3 Yrotation Xrotation Zrotation
                        JOINT LeftForeArm
                        {
                            OFFSET 28.000000 0.000000 0.000000
                            CHANNELS 3 Yrotation Xrotation Zrotation
                            JOINT LeftHand
                            {
                                OFFSET 26.000000 0.000000 0.000000
                                CHANNELS 3 Yrotation Xrotation Zrotation
                                JOINT LeftHandThumb1
                                {
                                    OFFSET 1.937000 -0.484000 2.518000
                                    CHANNELS 3 Yrotation Xrotation Zrotation
                                    JOINT LeftHandThumb2
                                    {
                                        OFFSET 3.872000 0.000000 0.000000
                                        CHANNELS 3 Yrotation Xrotation Zrotation
                                        JOINT LeftHandThumb3
                                        {
                                            OFFSET 2.690000 0.000000 0.000000
                                            CHANNELS 3 Yrotation Xrotation Zrotation
                                            End Site
                                            {
                                                OFFSET 2.537000 0.000000 0.000000
                                            }
                                        }
                                    }
                                }
                                JOINT LeftInHandIndex
                                {
                                    OFFSET 3.389000 0.535000 2.080000
                                    CHANNELS 3 Yrotation Xrotation Zrotation
                                    JOINT LeftHandIndex1
                                    {
                                        OFFSET 5.485000 -0.096000 1.051000
                                        CHANNELS 3 Yrotation Xrotation Zrotation
                                        JOINT LeftHandIndex2
                                        {
                                            OFFSET 3.806000 0.000000 0.000000
                                            CHANNELS 3 Yrotation Xrotation Zrotation
                                            JOINT LeftHandIndex3
                                            {
                                                OFFSET 2.158000 0.000000 0.000000
                                                CHANNELS 3 Yrotation Xrotation Zrotation
                                                End Site
                                                {
                                                    OFFSET 1.898000 0.000000 0.000000
                                                }
                                            }
                                        }
                                    }
                                }
                                JOINT LeftInHandMiddle
                                {
                                    OFFSET 3.556000 0.544000 0.796000
                                    CHANNELS 3 Yrotation Xrotation Zrotation
                                    JOINT LeftHandMiddle1
                                    {
                                        OFFSET 5.441000 -0.088000 0.330000
                                        CHANNELS 3 Yrotation Xrotation Zrotation
                                        JOINT LeftHandMiddle2
                                        {
                                            OFFSET 4.153000 0.000000 0.000000
                                            CHANNELS 3 Yrotation Xrotation Zrotation
                                            JOINT LeftHandMiddle3
                                            {
                                                OFFSET 2.603000 0.000000 0.000000
                                                CHANNELS 3 Yrotation Xrotation Zrotation
                                                End Site
                                                {
                                                    OFFSET 2.076000 0.000000 0.000000
                                                }
                                            }
                                        }
                                    }
                                }
                                JOINT LeftInHandRing
                                {
                                    OFFSET 3.539000 0.566000 -0.136000
                                    CHANNELS 3 Yrotation Xrotation Zrotation
                                    JOINT LeftHandRing1
                                    {
                                        OFFSET 4.873000 -0.023000 -0.504000
                                        CHANNELS 3 Yrotation Xrotation Zrotation
                                        JOINT LeftHandRing2
                                        {
                                            OFFSET 3.619000 0.000000 0.000000
                                            CHANNELS 3 Yrotation Xrotation Zrotation
                                            JOINT LeftHandRing3
                                            {
                                                OFFSET 2.511000 0.000000 0.000000
                                                CHANNELS 3 Yrotation Xrotation Zrotation
                                                End Site
                                                {
                                                    OFFSET 1.952000 0.000000 0.000000
                                                }
                                            }
                                        }
                                    }
                                }
                                JOINT LeftInHandPinky
                                {
                                    OFFSET 3.324000 0.494000 -1.264000
                                    CHANNELS 3 Yrotation Xrotation Zrotation
                                    JOINT LeftHandPinky1
                                    {
                                        OFFSET 4.354000 -0.023000 -1.147000
                                        CHANNELS 3 Yrotation Xrotation Zrotation
                                        JOINT LeftHandPinky2
                                        {
                                            OFFSET 2.898000 0.000000 0.000000
                                            CHANNELS 3 Yrotation Xrotation Zrotation
                                            JOINT LeftHandPinky3
                                            {
                                                OFFSET 1.831000 0.000000 0.000000
                                                CHANNELS 3 Yrotation Xrotation Zrotation
                                                End Site
                                                {
                                                    OFFSET 1.730000 0.000000 0.000000
                                                }
                                            }
                                        }
                                    }
                                }
                            }
                        }
                    }
                }
            }
        }
    }
}
MOTION
Frames: 4
Frame Time: 0.011111
0.000000 97.119995 0.000000 0.000000 0.000000 0.000000 0.000000 0.000000 0.000000 0.000000 0.000000 0.000000 0.000000 0.000000 0.000000 0.000000 0.000000 0.000000 0.000000 0.000000 0.000000 0.000000 0.000000 0.000000 0.000000 0.000000 0.000000 0.000000 0.000000 0.000000 0.000000 0.000000 0.000000 0.000000 0.000000 0.000000 0.000000 0.000000 0.000000 0.000000 0.000000 0.000000 0.000000 0.000000 0.000000 0.000000 0.000000 0.000000 0.000000 0.000000 0.000000 0.000000 0.000000 0.000000 0.000000 0.000000 0.000000 0.000000 0.000000 0.000000 0.000000 0.000000 0.000000 0.000000 0.000000 0.000000 0.000000 0.000000 0.000000 0.000000 0.000000 0.000000 0.000000 0.000000 0.000000 0.000000 0.000000 0.000000 0.000000 0.000000 0.000000 0.000000 0.000000 0.000000 0.000000 0.000000 0.000000 0.000000 0.000000 0.000000 0.000000 0.000000 0.000000 0.000000 0.000000 0.000000 0.000000 0.000000 0.000000 0.000000 0.000000 0.000000 0.000000 0.000000 0.000000 0.000000 0.000000 0.000000 0.000000 0.000000 0.000000 0.000000 0.000000 0.000000 0.000000 0.000000 0.000000 0.000000 0.000000 0.000000 0.000000 0.000000 0.000000 0.000000 0.000000 0.000000 0.000000 0.000000 0.000000 0.000000 0.000000 0.000000 0.000000 0.000000 0.000000 0.000000 0.000000 0.000000 0.000000 0.000000 0.000000 0.000000 0.000000 0.000000 0.000000 0.000000 0.000000 0.000000 0.000000 0.000000 0.000000 0.000000 0.000000 0.000000 0.000000 0.000000 0.000000 0.000000 0.000000 0.000000 0.000000 0.000000 0.000000 0.000000 0.000000 0.000000 0.000000 0.000000 0.000000 0.000000 0.000000 0.000000 0.000000 0.000000 0.000000 0.000000 0.000000 0.000000 0.000000 0.000000
-0.469230 97.075066 -1.276514 4.751606 -3.211619 0.510058 178.785904 174.226974 177.670746 175.513214 179.293137 -179.725021 179.743149 -174.659302 -179.785736 2.165555 6.660860 0.557885 176.066895 -178.666931 -179.848541 177.249649 -177.405823 179.144501 0.277309 3.717625 0.410033 0.277275 3.644837 0.671046 1.221291 2.613451 0.951429 180.000000 -177.741806 178.915237 0.000001 -2.634563 -1.123511 163.243317 -177.951157 179.924683 179.989609 177.130646 178.619263 9.237988 -8.284484 82.859749 1.290758 -1.035443 -2.460582 174.752930 -176.385056 -176.558655 35.271542 48.111679 3.370673 180.000000 -179.999985 -169.668091 0.000002 0.000003 6.881039 0.000000 -0.000000 0.000000 15.000009 -0.000000 29.186699 180.000000 180.000000 -156.119980 180.000000 180.000000 -163.283997 0.000000 -0.000000 0.000000 0.000001 0.000001 32.539761 180.000000 -180.000000 -147.460251 180.000000 -180.000000 -158.328537 0.000000 -0.000000 0.000000 170.000000 180.000000 -150.621414 180.000000 -179.999985 -150.621445 0.000002 -0.000001 19.566133 0.000000 -0.000000 0.000000 160.000000 180.000000 -163.974380 180.000000 180.000000 -155.961578 180.000000 -180.000000 -163.990417 173.908630 -178.665176 176.076172 169.390839 -174.094025 99.844078 179.450867 -179.056244 -177.883179 7.180913 -4.737076 -7.962381 141.056992 126.794006 166.008133 0.000001 0.000004 -13.080583 0.000000 -0.000002 -8.711673 0.000000 -0.000000 0.000000 165.000015 180.000000 158.091003 0.000000 0.000000 -17.925539 0.000000 -0.000001 -12.547885 0.000000 -0.000000 0.000000 0.000001 0.000001 -26.752735 180.000000 180.000000 153.247253 0.000000 -0.000000 -17.817324 0.000000 -0.000000 0.000000 10.000001 -0.000000 -26.554884 0.000001 0.000000 -26.554880 180.000000 -180.000000 162.314453 0.000000 -0.000000 0.000000 20.000006 -0.000000 -23.814219 0.000000 0.000000 -35.721325 180.000000 179.999985 156.209595
-0.467147 97.075317 -1.281770 4.759590 -3.212297 0.518822 178.783310 174.232697 177.659790 175.506454 179.287155 -179.724579 179.739487 -174.659561 -179.784744 2.151980 6.655456 0.544565 176.069519 -178.675125 -179.847015 177.253372 -177.404633 179.146515 0.275560 3.718873 0.410511 0.275527 3.646063 0.671917 1.212994 2.614488 0.952089 180.000000 -177.744507 178.924316 180.000000 -177.368576 178.885895 163.229828 -177.954880 179.929825 179.987869 177.133392 178.612701 9.241094 -8.282551 82.861977 1.289467 -1.044014 -2.455017 174.756424 -176.375519 -176.562775 35.263012 48.117023 3.365966 179.999985 179.999985 -169.667740 0.000003 -0.000004 6.881315 0.000000 -0.000000 0.000003 15.000000 0.000003 29.151752 180.000000 -180.000000 -156.148575 180.000000 -179.999985 -163.303986 0.000000 -0.000000 0.000003 180.000000 -180.000000 -147.447998 0.000001 0.000000 32.552017 0.000000 0.000001 21.679644 0.000000 -0.000000 0.000003 170.000000 -179.999985 -150.611069 180.000000 180.000000 -150.611038 180.000000 -180.000000 -160.426956 0.000000 -0.000000 0.000003 160.000015 -179.999985 -163.978134 179.999985 -180.000000 -155.967239 0.000007 0.000002 16.005838 173.911697 -178.664337 176.071487 169.405258 -174.085526 99.845459 179.449371 -179.077362 -177.887527 7.193902 -4.751040 -7.970064 141.155472 126.824318 166.090271 0.000001 0.000021 -13.090656 0.000009 -0.000004 -8.718388 0.000000 -0.000000 0.000000 165.000000 -179.999985 158.126450 180.000000 -180.000000 162.103455 180.000000 -179.999985 167.472427 0.000000 -0.000000 0.000000 0.000001 0.000000 -26.773561 0.000002 0.000000 -26.773575 0.000002 0.000000 -17.831192 0.000000 -0.000000 0.000000 10.000001 -0.000001 -26.552095 180.000000 -180.000000 153.447937 0.000001 -0.000003 -17.683683 0.000000 -0.000000 0.000000 20.000004 0.000004 -23.818451 0.000000 0.000000 -35.727642 0.000002 -0.000001 -23.794605
-0.465406 97.075584 -1.286620 4.767585 -3.210941 0.526981 178.783737 174.240585 177.650833 175.496750 179.281799 -179.725555 179.736023 -174.660675 -179.781952 2.139356 6.646633 0.531920 176.069870 -178.684326 -179.846115 177.257751 -177.402161 179.149872 0.274023 3.718731 0.410431 0.273989 3.645930 0.671854 1.205814 2.614575 0.951565 180.000000 -177.747635 178.933838 0.000000 -2.627754 -1.104234 163.215240 -177.959045 179.935181 179.983292 177.133942 178.611954 9.235754 -8.281608 82.869194 1.288356 -1.040050 -2.456724 174.757263 -176.377182 -176.568527 35.288612 48.104160 3.424279 180.000000 180.000000 -169.647324 0.000004 0.000003 6.894888 0.000000 -0.000000 0.000000 15.000004 -0.000002 29.199936 0.000002 -0.000000 23.890862 180.000000 180.000000 -163.276413 0.000000 -0.000000 0.000000 0.000000 -0.000000 32.532551 180.000000 -180.000000 -147.467453 180.000000 -180.000000 -158.333328 0.000000 -0.000000 0.000000 170.000000 180.000000 -150.625900 0.000000 0.000001 29.374109 180.000000 180.000000 -160.436859 0.000000 -0.000000 0.000000 160.000000 -180.000000 -163.973053 0.000002 0.000003 24.040443 180.000000 -180.000000 -163.989059 173.915771 -178.666275 176.071869 169.418106 -174.075958 99.843506 179.444855 -179.096420 -177.892532 7.194077 -4.741815 -7.974226 140.927155 126.762764 165.895538 0.000005 -0.000003 -13.070935 0.000002 0.000012 -8.705233 180.000000 180.000000 -180.000000 165.000015 180.000000 158.048599 0.000001 -0.000001 -17.960258 0.000001 0.000000 -12.572162 180.000000 180.000000 -180.000000 0.000000 0.000002 -26.759792 0.000001 0.000001 -26.759789 0.000001 -0.000001 -17.822012 180.000000 180.000000 -180.000000 9.999999 -0.000003 -26.552275 180.000000 -180.000000 153.447693 180.000000 -180.000000 162.316177 180.000000 180.000000 -180.000000 20.000002 -0.000010 -23.815460 0.000001 -0.000002 -35.723206 180.000000 179.999985 156.208344
